# xmcd CD database file generated by Grip 2.6
# 
# Track frame offsets:
#       150
#       32756
#       42956
#       50996
#       63465
#       75757
#       86616
#       96286
#       108410
#       120812
#       131799
#       142188
#       152037
#       161956
#       173427
#       183302
#       191563
#       202754
# 
# Disc length: 2858 seconds
# 
# Revision: 3
# Processed by: cddbd v1.4b41PL1 Copyright (c) Steve Scherf et al.
# Submitted via: Grip 2.6
# 
DISCID=ef0b2812
DTITLE=Johny Cash - Johny Cash and CDROM
DYEAR=1900
DGENRE=
TTITLE0=Going by the book (video track)
TTITLE1=Ballad of a Teenage Queen
TTITLE2=Guess Things Happen That Way
TTITLE3=Folsom Prison Blues
TTITLE4=I Walk the Line
TTITLE5=The Ways of a Woman in Love
TTITLE6=Rock Island Line
TTITLE7=You're the Nearest Thing to Heaven
TTITLE8=Next in Line
TTITLE9=I Just Thought You'd Like to Know
TTITLE10=Straight A's in Love
TTITLE11=Hey Porter
TTITLE12=Get Rhythm
TTITLE13=Big River
TTITLE14=Born to Loose
TTITLE15=Sugartime
TTITLE16=I Love You Because
TTITLE17=Thanks a Lot
EXTD=
EXTT0=
EXTT1=
EXTT2=
EXTT3=
EXTT4=
EXTT5=
EXTT6=
EXTT7=
EXTT8=
EXTT9=
EXTT10=
EXTT11=
EXTT12=
EXTT13=
EXTT14=
EXTT15=
EXTT16=
EXTT17=
PLAYORDER=
